# xmcd
#
# Track frame offsets:
#	150
#	16702
#	51694
#	82771
#	98420
#	147544
#	257649
#
# Disc length: 3675 seconds
#
# Revision: 1
# Processed by: cddbd v1.5.2PL0 Copyright (c) Steve Scherf et al.
# Submitted via: audiograbber 1.83.01
#
DISCID=510e5907
DTITLE=Grateful Dead - 68-06-14 Fillmore East, New York NY
DYEAR=1900
DGENRE=
TTITLE0=Feedback
TTITLE1=The Eleven
TTITLE2=St Stephen
TTITLE3=Alligator
TTITLE4=Turn On Your Lovelight
TTITLE5=Caution
TTITLE6=Feedback
EXTD=
EXTT0=
EXTT1=
EXTT2=
EXTT3=
EXTT4=
EXTT5=
EXTT6=
PLAYORDER=
